HIERARCHY
ROOT Hips
{
 OFFSET 0.000000 0.000000 0.000000
 CHANNELS 6 Xposition Yposition Zposition Yrotation Xrotation Zrotation
 JOINT Chest
 {
  OFFSET 0.000000 9.585900 0.002600
  CHANNELS 3 Yrotation Xrotation Zrotation
  JOINT Chest2
  {
   OFFSET 0.000000 9.601200 -0.005300
   CHANNELS 3 Yrotation Xrotation Zrotation
   JOINT Chest3
   {
    OFFSET 0.000000 9.561800 0.000000
    CHANNELS 3 Yrotation Xrotation Zrotation
    JOINT Chest4
    {
     OFFSET 0.000000 9.552100 0.000000
     CHANNELS 3 Yrotation Xrotation Zrotation
     JOINT Neck
     {
      OFFSET 0.000000 14.453000 0.000000
      CHANNELS 3 Yrotation Xrotation Zrotation
      JOINT Head
      {
       OFFSET 0.000000 8.936500 -0.011300
       CHANNELS 3 Yrotation Xrotation Zrotation
       End Site
       {
        OFFSET 0.000000 17.073600 -0.006000
       }
      }
     }
     JOINT RightCollar
     {
      OFFSET -2.921100 9.558500 0.000000
      CHANNELS 3 Yrotation Xrotation Zrotation
      JOINT RightShoulder
      {
       OFFSET -13.519700 0.000000 0.000000
       CHANNELS 3 Yrotation Xrotation Zrotation
       JOINT RightElbow
       {
        OFFSET 0.000000 -29.696600 0.000000
        CHANNELS 3 Yrotation Xrotation Zrotation
        JOINT RightWrist
        {
         OFFSET 0.000000 -24.004700 0.000000
         CHANNELS 3 Yrotation Xrotation Zrotation
         End Site
         {
          OFFSET 0.000000 -17.728500 0.000000
         }
        }
       }
      }
     }
     JOINT LeftCollar
     {
      OFFSET 2.921100 9.558500 0.000000
      CHANNELS 3 Yrotation Xrotation Zrotation
      JOINT LeftShoulder
      {
       OFFSET 13.519700 0.000000 0.000000
       CHANNELS 3 Yrotation Xrotation Zrotation
       JOINT LeftElbow
       {
        OFFSET 0.000000 -29.696600 0.000000
        CHANNELS 3 Yrotation Xrotation Zrotation
        JOINT LeftWrist
        {
         OFFSET 0.000000 -24.004700 0.000000
         CHANNELS 3 Yrotation Xrotation Zrotation
         End Site
         {
          OFFSET 0.000000 -17.728500 0.000000
         }
        }
       }
      }
     }
    }
   }
  }
 }
 JOINT RightHip
 {
  OFFSET -7.771700 -0.012900 -0.001300
  CHANNELS 3 Yrotation Xrotation Zrotation
  JOINT RightKnee
  {
   OFFSET 0.000000 -40.869800 0.001200
   CHANNELS 3 Yrotation Xrotation Zrotation
   JOINT RightAnkle
   {
    OFFSET 0.000000 -39.717900 0.002100
    CHANNELS 3 Yrotation Xrotation Zrotation
    JOINT RightToe
    {
     OFFSET 0.000000 -4.965400 11.033500
     CHANNELS 3 Yrotation Xrotation Zrotation
     End Site
     {
      OFFSET 0.000000 -1.423100 5.872300
     }
    }
   }
  }
 }
 JOINT LeftHip
 {
  OFFSET 7.771700 -0.012900 -0.001300
  CHANNELS 3 Yrotation Xrotation Zrotation
  JOINT LeftKnee
  {
   OFFSET 0.000000 -40.869800 0.001200
   CHANNELS 3 Yrotation Xrotation Zrotation
   JOINT LeftAnkle
   {
    OFFSET 0.000000 -39.717900 0.002100
    CHANNELS 3 Yrotation Xrotation Zrotation
    JOINT LeftToe
    {
     OFFSET 0.000000 -4.965400 11.033500
     CHANNELS 3 Yrotation Xrotation Zrotation
     End Site
     {
      OFFSET 0.000000 -1.423100 5.872300
     }
    }
   }
  }
 }
}
MOTION
Frames: 15
Frame Time: 0.008333
0.000000 85.388000 0.000000 0.000000 -5.767877 0.000000 0.000000 11.653817 0.000000 0.000000 -5.885947 0.000000 0.000000 -0.000000 0.000000 0.000000 -0.000000 0.000000 0.000000 12.528835 0.000000 0.000000 0.711642 0.000000 0.000000 -0.000000 0.000000 0.000000 0.000000 -90.000000 0.000000 -2.309062 0.000000 0.000000 2.309062 0.000000 0.000000 -0.000000 0.000000 0.000000 -0.000000 90.000000 0.000000 -2.309062 0.000000 0.000000 2.309062 0.000000 0.000000 8.520406 0.000000 0.000000 1.905762 0.000000 -0.000000 -4.658285 0.000000 0.000000 -0.000000 0.000000 0.000000 8.520406 0.000000 0.000000 1.905762 0.000000 -0.000000 -4.658285 0.000000 0.000000 -0.000000 0.000000
-185.174108 49.375267 12.725229 176.601013 -30.710479 -4.619453 1.631864 20.209230 2.816426 0.174068 2.599848 0.279416 0.274385 4.203046 0.465336 1.384800 17.352723 2.110411 11.201945 19.569237 -0.678942 20.603602 1.321733 -4.572168 -2.216995 -1.599701 -1.061662 -6.202150 -11.220196 -11.116517 -55.285803 -46.261817 97.585573 0.700557 -1.097012 -7.908974 -1.893912 -0.935178 2.391678 10.053208 -11.111721 10.143836 71.908007 -36.337013 -102.047120 17.209566 -7.987691 18.439953 -2.326621 -52.993774 -4.357414 -157.405841 79.975421 -144.091783 -30.190445 -4.911870 -2.126586 -0.235278 -12.529806 1.816481 -18.383547 -55.165036 21.855682 -72.986022 66.666807 -77.766852 30.648486 8.411904 14.004926 0.027895 -0.350556 0.029112
-185.179335 49.376969 12.726231 176.607209 -30.665635 -4.626028 1.656215 20.249180 2.824671 0.170851 2.586712 0.280688 0.278529 4.208926 0.466200 1.412264 17.383614 2.115055 11.210525 19.522443 -0.683829 20.640494 1.278728 -4.587078 -2.254347 -1.662568 -1.056457 -6.168942 -11.125369 -11.175298 -55.177734 -46.296556 97.589718 0.770646 -1.050982 -7.789603 -1.873899 -0.930096 2.393418 10.002720 -10.994989 10.118296 71.882498 -36.451539 -102.136319 17.133050 -7.911961 18.230045 -2.343000 -53.028464 -4.351033 -157.374509 79.983299 -144.063780 -30.183250 -4.926625 -2.123615 -0.233280 -12.512443 1.814781 -18.404090 -55.207820 21.866158 -72.985230 66.672515 -77.757856 30.647705 8.407934 14.005571 0.026599 -0.346248 0.026790
-185.184450 49.379282 12.727094 176.611077 -30.615538 -4.636894 1.669960 20.250387 2.835274 0.177749 2.606763 0.280108 0.282886 4.215127 0.467110 1.429866 17.393755 2.119304 11.233074 19.493804 -0.689755 20.708933 1.236541 -4.610374 -2.257845 -1.594777 -1.084823 -6.151914 -11.131317 -11.191412 -55.098533 -46.343783 97.604777 0.837725 -1.007711 -7.668171 -1.877499 -0.961340 2.399620 9.979456 -10.826284 10.087361 71.858868 -36.568383 -102.216632 17.048842 -7.851693 18.008601 -2.366979 -53.067801 -4.333899 -157.348256 79.992709 -144.040054 -30.181270 -4.941153 -2.121673 -0.231640 -12.496044 1.813940 -18.439204 -55.253187 21.898058 -72.980986 66.669909 -77.750009 30.647691 8.413074 14.006963 0.030563 -0.347950 0.024974
-185.190383 49.381901 12.727862 176.622260 -30.559389 -4.649339 1.687433 20.276768 2.845165 0.175883 2.594342 0.281800 0.287325 4.221851 0.468282 1.447737 17.404763 2.124366 11.258938 19.462615 -0.698377 20.761599 1.184149 -4.638160 -2.269410 -1.576659 -1.099144 -6.108266 -11.086288 -11.222392 -55.043417 -46.406259 97.626860 0.898913 -0.968216 -7.540946 -1.841776 -0.905840 2.391608 9.915569 -10.756449 10.046816 71.837438 -36.685470 -102.286250 16.966905 -7.806956 17.786897 -2.396296 -53.111615 -4.318296 -157.313321 80.001856 -144.008651 -30.181799 -4.956036 -2.120732 -0.230870 -12.479581 1.815993 -18.480157 -55.304145 21.928873 -72.967289 66.662840 -77.732152 30.647723 8.426295 14.012687 0.027070 -0.353953 0.018311
-185.196405 49.385349 12.727373 176.627918 -30.507507 -4.658691 1.712077 20.304736 2.856083 0.161275 2.548438 0.285166 0.303181 4.263463 0.468179 1.463716 17.417281 2.130268 11.253234 19.401265 -0.708722 20.851268 1.163219 -4.669331 -2.283342 -1.580151 -1.108561 -6.053540 -11.019915 -11.256698 -55.003232 -46.479574 97.653011 0.956561 -0.932916 -7.410140 -1.807933 -0.852752 2.380322 9.851053 -10.692656 10.002359 71.820501 -36.799692 -102.351313 16.895878 -7.773445 17.580782 -2.418993 -53.152993 -4.304431 -157.298877 80.008914 -143.996919 -30.184632 -4.969729 -2.117703 -0.233483 -12.466297 1.817941 -18.509375 -55.353590 21.946543 -72.965503 66.669807 -77.719766 30.648924 8.433521 14.012066 0.022990 -0.359584 0.015900
-185.202488 49.389511 12.725447 176.631492 -30.461716 -4.665098 1.734818 20.320024 2.866561 0.168912 2.570604 0.285349 0.300891 4.254265 0.470122 1.476730 17.430600 2.134912 11.299938 19.385786 -0.717790 20.894950 1.097828 -4.699763 -2.290858 -1.582756 -1.114695 -6.003185 -10.955849 -11.289605 -54.968582 -46.554664 97.683060 1.014531 -0.903237 -7.283366 -1.788777 -0.832172 2.374148 9.797246 -10.601126 9.953101 71.807562 -36.904022 -102.414925 16.838198 -7.749805 17.407964 -2.435287 -53.192943 -4.294043 -157.269497 80.009134 -143.973354 -30.186136 -4.970744 -2.110623 -0.232916 -12.464073 1.818599 -18.529214 -55.398186 21.956826 -72.977666 66.669653 -77.722021 30.659647 8.435759 14.011805 0.018662 -0.365073 0.014404
-185.208701 49.393664 12.722908 176.653911 -30.415591 -4.677791 1.726481 20.305577 2.870538 0.190838 2.620894 0.284673 0.297577 4.245140 0.472030 1.467393 17.402304 2.137137 11.366233 19.415586 -0.721529 20.936763 1.036501 -4.725661 -2.277042 -1.542711 -1.123204 -5.959340 -10.896030 -11.320639 -54.931874 -46.624307 97.713954 1.072104 -0.875769 -7.161046 -1.753588 -0.771288 2.362847 9.737482 -10.513755 9.899633 71.790627 -36.985585 -102.472184 16.794620 -7.739694 17.279513 -2.460276 -53.224264 -4.293979 -157.203596 79.998585 -143.910298 -30.163479 -4.996523 -2.095026 -0.236721 -12.447413 1.814231 -18.554605 -55.439546 21.952087 -73.002466 66.669770 -77.729177 30.664713 8.411072 14.001664 0.021870 -0.346853 0.015184
-185.213750 49.398366 12.718771 176.675449 -30.379227 -4.693411 1.720875 20.299974 2.878883 0.208188 2.649793 0.284489 0.300795 4.252393 0.473224 1.455822 17.378943 2.139257 11.415708 19.429093 -0.723924 20.989880 0.998754 -4.746210 -2.278419 -1.545226 -1.123541 -5.900846 -10.803263 -11.359040 -54.890309 -46.683090 97.741315 1.127346 -0.849648 -7.043680 -1.744599 -0.763677 2.360087 9.697062 -10.382162 9.844358 71.763797 -37.035650 -102.521236 16.769623 -7.739996 17.198598 -2.484193 -53.247873 -4.291515 -157.190720 79.995915 -143.897847 -30.158425 -5.006410 -2.084262 -0.237259 -12.443632 1.813672 -18.595778 -55.469948 21.974580 -73.004745 66.668651 -77.729447 30.651915 8.413979 13.994148 0.029187 -0.349975 0.018538
-185.219661 49.402931 12.713611 176.695562 -30.348490 -4.699276 1.733222 20.323126 2.882972 0.209412 2.649900 0.285701 0.303817 4.258413 0.474170 1.471717 17.397924 2.146801 11.437210 19.404263 -0.731249 21.040327 0.972709 -4.761147 -2.281750 -1.530812 -1.126577 -5.869562 -10.772879 -11.382108 -54.841495 -46.726442 97.760071 1.174448 -0.829238 -6.933923 -1.723894 -0.730837 2.347039 9.626272 -10.330943 9.790551 71.720568 -37.050943 -102.560665 16.764751 -7.741348 17.160746 -2.495213 -53.265925 -4.306705 -157.199480 79.995603 -143.905910 -30.157223 -5.017859 -2.074549 -0.246258 -12.439228 1.815332 -18.623785 -55.495871 21.974608 -72.991194 66.677034 -77.716147 30.650086 8.418032 13.994006 0.021638 -0.358768 0.016185
-185.224666 49.407368 12.707802 176.710288 -30.323662 -4.703770 1.749165 20.347193 2.889462 0.214080 2.651381 0.285155 0.307042 4.263673 0.474889 1.478278 17.411007 2.149986 11.469003 19.392079 -0.734662 21.089229 0.960940 -4.770785 -2.275791 -1.508946 -1.124193 -5.839590 -10.749537 -11.406451 -54.785317 -46.750219 97.771194 1.206940 -0.813582 -6.835842 -1.698659 -0.699988 2.338550 9.566741 -10.287451 9.734362 71.651861 -37.031173 -102.585415 16.773862 -7.744863 17.162139 -2.503282 -53.278737 -4.321263 -157.222227 79.998935 -143.926404 -30.160810 -5.025049 -2.067859 -0.244434 -12.438612 1.815549 -18.649323 -55.517825 21.976808 -72.988039 66.680861 -77.712023 30.648555 8.427133 13.991002 0.025829 -0.368375 0.014857
-185.229633 49.409615 12.704861 176.727205 -30.280652 -4.706392 1.762922 20.351891 2.891363 0.219235 2.651913 0.287268 0.310361 4.269060 0.475472 1.489408 17.420104 2.153283 11.497510 19.392139 -0.734755 21.138030 0.964380 -4.776099 -2.283916 -1.500495 -1.115421 -5.805579 -10.713781 -11.432204 -54.723461 -46.753972 97.780905 1.228585 -0.801957 -6.758428 -1.693625 -0.696792 2.334835 9.523805 -10.231040 9.676809 71.558377 -36.983993 -102.592728 16.790796 -7.753883 17.198437 -2.506654 -53.311174 -4.346214 -157.270306 80.007140 -143.967577 -30.164014 -5.030399 -2.066220 -0.244769 -12.437353 1.816486 -18.687767 -55.555012 21.989499 -72.968400 66.680135 -77.698027 30.658028 8.430022 13.994741 0.023036 -0.369866 0.012565
-185.234710 49.411482 12.701940 176.758967 -30.239334 -4.711294 1.765679 20.355712 2.890263 0.223328 2.653610 0.291218 0.313215 4.274055 0.476130 1.539001 17.476198 2.155330 11.491688 19.351209 -0.730418 21.187845 0.985774 -4.778623 -2.327119 -1.540322 -1.092128 -5.780517 -10.679075 -11.452409 -54.653430 -46.741339 97.787586 1.243902 -0.796287 -6.702730 -1.725087 -0.749280 2.340632 9.476761 -10.182905 9.619113 71.449421 -36.922972 -102.581515 16.812617 -7.767058 17.261044 -2.509517 -53.340035 -4.387614 -157.324938 80.008982 -144.013671 -30.151303 -5.040877 -2.058228 -0.250925 -12.434758 1.813725 -18.737065 -55.591526 21.997824 -72.962644 66.681015 -77.698946 30.655579 8.422846 13.989161 0.024115 -0.365237 0.013695
-185.240753 49.412682 12.699667 176.792223 -30.196593 -4.706450 1.764956 20.357633 2.881871 0.228951 2.652697 0.294820 0.315850 4.278109 0.477171 1.546630 17.485853 2.157791 11.523672 19.368186 -0.726404 21.237057 1.026291 -4.776829 -2.331043 -1.535528 -1.082448 -5.760884 -10.643698 -11.470422 -54.576668 -46.714550 97.784228 1.249202 -0.794324 -6.659966 -1.721643 -0.759836 2.329755 9.421720 -10.139495 9.559012 71.332234 -36.859895 -102.551421 16.835854 -7.787507 17.344359 -2.508454 -53.377091 -4.432601 -157.386709 80.006658 -144.073003 -30.157278 -5.050842 -2.052737 -0.248690 -12.432595 1.816154 -18.786784 -55.627568 21.995199 -72.926237 66.676978 -77.676148 30.669247 8.424701 13.992429 0.009121 -0.369768 0.010174
-185.244491 49.414348 12.697167 176.813293 -30.162151 -4.703997 1.830381 20.397404 2.911313 0.167822 2.596455 0.285386 0.341321 4.301536 0.481164 1.512205 17.454866 2.156011 11.596301 19.435912 -0.718368 21.286188 1.082230 -4.767319 -2.295713 -1.495563 -1.080416 -5.741626 -10.605659 -11.485022 -54.496279 -46.676916 97.768264 1.245858 -0.795772 -6.629347 -1.684485 -0.738080 2.307804 9.358286 -10.096980 9.501376 71.209752 -36.801659 -102.503302 16.860295 -7.816577 17.437483 -2.510806 -53.407608 -4.457742 -157.405671 80.002670 -144.092378 -30.160784 -5.054076 -2.047957 -0.245490 -12.434261 1.818194 -18.813432 -55.658465 21.994914 -72.897759 66.669461 -77.651867 30.674733 8.437204 13.998450 0.007257 -0.378140 0.006400
